<svg id="_x31_px" enable-background="new 0 0 24 24" height="512" viewBox="0 0 24 24" width="512" xmlns="http://www.w3.org/2000/svg"><g id="XMLID_1_"><path d="m23.25 12.497h-.26c.01-.16.01-.33.01-.5s0-.34-.01-.5h.26c.28 0 .5.23.5.5 0 .28-.22.5-.5.5z"/><path d="m22.99 11.497c.01.16.01.33.01.5s0 .34-.01.5h-1.75c-.28 0-.5-.22-.5-.5 0-.27.22-.5.5-.5z"/><path d="m20.51 4.127.5.87c-.12.07-.24.13-.37.2-.21-.27-.44-.53-.68-.78.19-.1.38-.19.55-.29z"/><path d="m20.64 5.197c-.96.49-2.09.9-3.32 1.2-.08-.34-.17-.66-.28-.97 1.08-.26 2.07-.6 2.92-1.01.24.25.47.51.68.78z"/><path d="m17.96 10.667c.01.27-.2.51-.47.52s-.52-.19-.53-.47c-.08-1.48-.3-2.88-.63-4.12.33-.06.66-.13.99-.2.34 1.29.56 2.72.64 4.27z"/><path d="m17.32 6.397c-.33.07-.66.14-.99.2-.08-.33-.17-.65-.28-.96.34-.06.67-.13.99-.21.11.31.2.63.28.97z"/><path d="m15.91 11.497c.28 0 .5.23.5.5 0 .28-.22.5-.5.5h-3.41v-1z"/><path d="m14.83 1.367c.9.94 1.67 2.34 2.21 4.06-.32.08-.65.15-.99.21-.82-2.51-2.11-4.25-3.55-4.58v-.05c.8.04 1.58.16 2.33.36z"/><path d="m16.33 6.597c-1.21.24-2.5.37-3.83.39v-1c1.23-.02 2.43-.14 3.55-.35.11.31.2.63.28.96z"/><path d="m19.96 4.417c-1.38-1.45-3.14-2.52-5.13-3.05-.76-.8-1.62-1.27-2.54-1.36 6.49.15 11.71 5.48 11.71 11.99 0 .76-.07 1.49-.2 2.17-.05.27-.31.45-.58.39-.28-.05-.45-.31-.4-.58.09-.47.15-.96.17-1.48h.26c.28 0 .5-.22.5-.5 0-.27-.22-.5-.5-.5h-.26c-.11-2.38-.97-4.55-2.35-6.3.13-.07.25-.13.37-.2l-.5-.87c-.17.1-.36.19-.55.29z"/><path d="m18 20.997h-5c-.55 0-1-.45-1-1v-3c0-.55.45-1 1-1h5v-2.5c0-.2.12-.38.31-.46s.4-.03.54.11l5 5c.2.19.2.51 0 .71l-5 5c-.09.09-.22.14-.35.14-.06 0-.13-.01-.19-.03-.19-.08-.31-.26-.31-.47zm.5-4h-5.5v3h5.5c.28 0 .5.23.5.5v1.8l3.79-3.8-3.79-3.79v1.79c0 .28-.22.5-.5.5z"/><path d="m12.5 12.497v1c0 .28-.22.5-.5.5s-.5-.22-.5-.5v-1z"/><path d="m11.5 11.497h1v1h-1z"/><path d="m12.5 6.987v4.51h-1v-4.51c.16.01.33.01.5.01s.34 0 .5-.01z"/><path d="m12 6.997c-.17 0-.34 0-.5-.01v-1c.16.01.33.01.5.01s.34 0 .5-.01v1c-.16.01-.33.01-.5.01z"/><path d="m12.5 1.057v4.93c-.16.01-.33.01-.5.01s-.34 0-.5-.01v-4.93c.16-.04.33-.06.5-.06s.34.02.5.06z"/><path d="m12.5 1.007v.05c-.16-.04-.33-.06-.5-.06.17 0 .33 0 .5.01z"/><path d="m12 23.997c-1.03 0-1.98-.49-2.82-1.37.9.24 1.84.37 2.82.37.28 0 .5.23.5.5 0 .28-.22.5-.5.5z"/><path d="m11.5 1.007v-.26c0-.27.22-.5.5-.5s.5.23.5.5v.26c-.17-.01-.33-.01-.5-.01s-.33 0-.5.01z"/><path d="m11.5 1.007c.17-.01.33-.01.5-.01-.17 0-.34.02-.5.06z"/><path d="m11.5 11.497v1h-4.49c-.01-.17-.01-.33-.01-.5s0-.33.01-.5z"/><path d="m12 .247c-.28 0-.5.23-.5.5v.26c-.8.04-1.57.16-2.32.36.84-.88 1.79-1.37 2.82-1.37.1 0 .19 0 .29.01.92.09 1.78.56 2.54 1.36-.75-.2-1.53-.32-2.33-.36v-.26c0-.27-.22-.5-.5-.5z"/><path d="m7.95 5.637c1.12.21 2.32.33 3.55.35v1c-1.33-.02-2.62-.15-3.83-.39.08-.33.18-.65.28-.96z"/><path d="m9.55 18.127c-.55.06-1.08.14-1.6.24-.1-.31-.2-.64-.28-.97.58-.11 1.17-.2 1.78-.26.28-.04.52.17.55.44.03.28-.17.52-.45.55z"/><path d="m6.96 5.427c.55-1.72 1.31-3.12 2.22-4.06.75-.2 1.52-.32 2.32-.36v.05c-1.44.33-2.73 2.08-3.55 4.58-.34-.06-.67-.13-.99-.21z"/><path d="m9.18 22.627c-.91-.94-1.67-2.34-2.22-4.06.32-.08.65-.15.99-.2.92 2.78 2.41 4.63 4.05 4.63-.98 0-1.92-.13-2.82-.37z"/><path d="m6.96 5.427c.32.08.65.15.99.21-.1.31-.2.63-.28.96-.34-.06-.67-.13-1-.2.09-.34.18-.66.29-.97z"/><path d="m6.68 17.617c.32-.09.66-.16.99-.22.08.33.18.66.28.97-.34.05-.67.12-.99.2-.11-.31-.2-.62-.28-.95z"/><path d="m6.01 11.497c.03-1.85.27-3.58.66-5.1.33.07.66.14 1 .2-.39 1.47-.63 3.14-.66 4.9z"/><path d="m6.68 17.617c-.4-1.52-.64-3.26-.67-5.12h1c.03 1.76.27 3.43.66 4.9-.33.06-.67.13-.99.22z"/><path d="m6.01 12.497c-.01-.17-.01-.33-.01-.5s0-.33.01-.5h1c-.01.17-.01.33-.01.5s0 .33.01.5z"/><path d="m6.96 5.427c-.11.31-.2.63-.29.97-1.23-.3-2.35-.7-3.31-1.2.21-.27.44-.53.68-.78.85.41 1.84.75 2.92 1.01z"/><path d="m6 11.997c0 .17 0 .33.01.5h-5c-.01-.17-.01-.33-.01-.5s0-.34.01-.5h5c-.01.17-.01.33-.01.5z"/><path d="m6.96 18.567c-1.08.26-2.07.61-2.92 1.02-.24-.25-.46-.51-.68-.78.95-.49 2.08-.9 3.32-1.19.08.33.17.64.28.95z"/><path d="m3.49 4.127c.17.1.36.19.55.29-.24.25-.47.51-.68.78-.13-.07-.25-.13-.37-.2z"/><path d="m3.36 18.807c.22.27.44.53.68.78-.19.09-.38.19-.55.29-.08.04-.17.06-.25.06-.13 0-.26-.05-.35-.14-.03-.03-.06-.07-.09-.11-.13-.24-.05-.55.19-.68.12-.07.24-.13.37-.2z"/><path d="m4.04 19.587c1.38 1.45 3.15 2.52 5.14 3.04.84.88 1.79 1.37 2.82 1.37-3.64 0-6.91-1.63-9.11-4.2.09.09.22.14.35.14.08 0 .17-.02.25-.06.17-.1.36-.2.55-.29z"/><path d="m1.01 11.497c-.01.16-.01.33-.01.5s0 .33.01.5h-.26c-.28 0-.5-.22-.5-.5 0-.27.22-.5.5-.5z"/><path d="m9.18 1.367c-1.99.52-3.76 1.6-5.14 3.05-.19-.1-.38-.19-.55-.29l-.5.87c.12.07.24.13.37.2-1.38 1.75-2.24 3.92-2.35 6.3h-.26c-.28 0-.5.23-.5.5 0 .28.22.5.5.5h.26c.11 2.37.97 4.56 2.35 6.31-.13.07-.25.13-.37.2-.24.13-.32.44-.19.68-1.75-2.08-2.8-4.76-2.8-7.69 0-6.61 5.38-12 12-12-1.03 0-1.98.49-2.82 1.37z"/></g></svg>