<svg id="icons" enable-background="new 0 0 64 64" height="512" viewBox="0 0 64 64" width="512" xmlns="http://www.w3.org/2000/svg"><g><g><path d="m47.754 63.998h-10.5c-.553 0-1-.447-1-1s.447-1 1-1h10.5c.241 0 .446-.174.489-.413.005-.026.01-.052.017-.076l7.986-44.916c.032-.179-.041-.314-.088-.38l-9.95-13.934c-.018-.021-.035-.042-.051-.064-.046-.064-.178-.213-.405-.213h-10.5c-.553 0-1-.447-1-1s.447-1 1-1h10.5c.766 0 1.492.357 1.966.961.024.026.047.056.068.086l10.002 14.003c.396.56.546 1.229.427 1.893l-8 44.991c-.006.033-.014.066-.022.099-.252 1.143-1.261 1.963-2.439 1.963zm-1.257-3h-7.453c-.553 0-1-.447-1-1s.447-1 1-1h6.615l7.449-41.895-8.643-12.101h-6.299c-.553 0-1-.447-1-1s.447-1 1-1h6.813c.323 0 .626.156.813.419l9.188 12.862c.156.219.218.491.171.756l-7.67 43.134c-.085.477-.5.825-.984.825z"/></g><g><path d="m37.254 63.998h-21.008c-1.179 0-2.188-.82-2.438-1.965-.01-.032-.017-.064-.022-.098l-8-44.993c-.119-.663.032-1.334.426-1.888l9.979-13.972c.015-.021.031-.042.048-.063.472-.639 1.221-1.019 2.01-1.019h17.005c.766 0 1.492.357 1.966.961.023.026.047.056.068.086l10.002 14.003c.396.56.546 1.229.427 1.893l-8 44.991c-.006.033-.014.066-.022.099-.254 1.145-1.263 1.965-2.441 1.965zm-21.514-2.489c.007.025.013.051.017.076.043.239.248.413.489.413h21.008c.241 0 .446-.174.489-.413.005-.026.01-.052.017-.076l7.986-44.916c.032-.179-.041-.314-.088-.38l-9.95-13.934c-.018-.021-.035-.042-.051-.064-.046-.064-.178-.213-.405-.213h-17.005c-.228 0-.359.148-.405.213-.014.02-.028.038-.044.057l-9.959 13.942c-.054.076-.115.208-.085.377zm20.257-.511h-18.494c-.484 0-.899-.348-.984-.825l-7.67-43.134c-.047-.265.015-.537.171-.756l9.188-12.862c.188-.263.49-.419.813-.419h15.459c.323 0 .626.156.813.419l9.188 12.862c.156.219.218.491.171.756l-7.67 43.134c-.086.477-.501.825-.985.825zm-17.656-2h16.818l7.449-41.895-8.643-12.101h-14.43l-8.644 12.102z"/></g><g><path d="m34.48 5.002c-.083 0-.167-.01-.25-.031-.535-.138-.857-.684-.72-1.218l.772-3c.138-.535.691-.856 1.218-.72.535.138.857.684.72 1.218l-.772 3c-.116.451-.522.751-.968.751z"/></g><g><path d="m19.02 5.002c-.445 0-.851-.299-.968-.75l-.773-3c-.138-.535.185-1.08.719-1.219.535-.137 1.08.184 1.219.719l.773 3c.138.535-.185 1.08-.719 1.219-.084.021-.168.031-.251.031z"/></g><g><path d="m37.254 63.998c-.391 0-.762-.23-.922-.613l-1.257-3c-.214-.51.026-1.096.535-1.309.513-.216 1.096.026 1.309.535l1.257 3c.214.51-.026 1.096-.535 1.309-.127.054-.258.078-.387.078z"/></g><g><path d="m16.246 63.998c-.129 0-.26-.024-.387-.078-.509-.213-.749-.799-.535-1.309l1.257-3c.213-.51.796-.752 1.309-.535.509.213.749.799.535 1.309l-1.257 3c-.16.383-.531.613-.922.613z"/></g><g><path d="m43.666 17.864c-.537 0-.981-.427-.998-.969-.018-.552.415-1.014.968-1.03l3.063-.097c.563-.03 1.014.415 1.03.968.018.552-.415 1.014-.968 1.03l-3.063.097c-.01.001-.021.001-.032.001z"/></g><g><path d="m9.834 17.864c-.011 0-.021 0-.032-.001l-3.063-.097c-.553-.017-.985-.479-.968-1.03.017-.553.498-1.002 1.03-.968l3.063.097c.553.017.985.479.968 1.03-.017.543-.461.969-.998.969z"/></g></g></svg>