<svg style="point-event: none;" height="512" viewBox="0 0 128 128" width="512" xmlns="http://www.w3.org/2000/svg" xmlns:xlink="http://www.w3.org/1999/xlink"><linearGradient id="a" gradientUnits="userSpaceOnUse" x1="96.951" x2="19.787" y1="98.743" y2="21.579"><stop offset="0" stop-color="#b373f0"/><stop offset="1" stop-color="#01ebcd"/></linearGradient><path d="m110.741 54.828-2.113 5.377a1.75 1.75 0 1 1 -3.257-1.28l2.112-5.377a3.586 3.586 0 0 0 -2.025-4.644l-32.208-12.652a3.589 3.589 0 0 0 -4.645 2.025l-3.068 7.811v33.26a7.091 7.091 0 0 1 -7.082 7.083h-34.605a7.091 7.091 0 0 1 -7.082-7.083v-51.82a7.091 7.091 0 0 1 7.082-7.083h4.65a1.75 1.75 0 0 1 0 3.5h-4.65a3.586 3.586 0 0 0 -3.582 3.583v51.82a3.586 3.586 0 0 0 3.582 3.583h34.6a3.586 3.586 0 0 0 3.582-3.583v-51.82a3.586 3.586 0 0 0 -3.582-3.583h-15.512a1.75 1.75 0 0 1 0-3.5h15.517a7.091 7.091 0 0 1 7.082 7.083v9.05a7.088 7.088 0 0 1 8.992-3.584l32.209 12.652a7.091 7.091 0 0 1 4.003 9.182zm-5.6 9.477a1.751 1.751 0 0 0 -2.268.989l-.407 1.037a1.75 1.75 0 1 0 3.258 1.279l.406-1.036a1.75 1.75 0 0 0 -.993-2.269zm-2.794 7.113a1.751 1.751 0 0 0 -2.268.99l-11.543 29.373a3.582 3.582 0 0 1 -4.644 2.024l-32.208-12.652a1.75 1.75 0 0 0 -1.28 3.258l32.208 12.652a7.083 7.083 0 0 0 9.182-4l11.539-29.373a1.751 1.751 0 0 0 -.99-2.272zm-22.847 1.023-.88 2.238 1.678.659a1.75 1.75 0 0 1 -.64 3.38 1.733 1.733 0 0 1 -.639-.122l-6.488-2.548a1.75 1.75 0 0 1 1.279-3.258l1.553.61.879-2.236a7.492 7.492 0 0 1 -4.769-14.146l13.127-5.718a1.754 1.754 0 0 1 2.308.9l5.72 13.12a7.491 7.491 0 0 1 -13.128 7.121zm-3.436-4.892 2.594-1.13a1.726 1.726 0 0 1 .7-.147 1.752 1.752 0 0 1 1.605 1.052l1.128 2.588a3.995 3.995 0 0 0 7.324-3.193l-5.015-11.519-11.525 5.026a3.994 3.994 0 0 0 3.193 7.323zm-40.193-43.6h.5a1.75 1.75 0 0 0 0-3.5h-.5a1.75 1.75 0 0 0 0 3.5zm-6.079 19.972a7.495 7.495 0 0 0 0 10.6l10.121 10.12a1.751 1.751 0 0 0 2.556-2.392 1.656 1.656 0 0 0 -.15-.152l-10.052-10.052a3.995 3.995 0 1 1 5.65-5.649l2 2a1.751 1.751 0 0 0 2.475 0l2-2a4 4 0 0 1 5.65 5.65l-5.206 5.206a1.75 1.75 0 0 0 2.474 2.475l5.207-5.206a7.495 7.495 0 0 0 -10.6-10.6l-.764.763-.759-.759a7.495 7.495 0 0 0 -10.6 0z" fill="url(#a)"/></svg>