<?xml version="1.0" encoding="iso-8859-1"?>
<!-- Generator: Adobe Illustrator 19.0.0, SVG Export Plug-In . SVG Version: 6.00 Build 0)  -->
<svg version="1.1" id="Capa_1" xmlns="http://www.w3.org/2000/svg" xmlns:xlink="http://www.w3.org/1999/xlink" x="0px" y="0px"
	 viewBox="0 0 512 512" style="enable-background:new 0 0 512 512;" xml:space="preserve">
<g>
	<g>
		<path d="M290.042,195.058l-68.216-68.705L153.16,195.02c-18.479,18.479-18.479,48.547,0,67.027
			c9.24,9.239,21.377,13.858,33.512,13.858c6.796,0,13.593-1.451,19.881-4.347v30.597h30.059v-30.597
			c17.516,8.071,38.979,4.901,53.394-9.512C308.482,243.567,308.482,213.499,290.042,195.058z M268.75,240.79
			c-6.758,6.759-17.758,6.759-24.518,0.001l-22.65-22.65l-22.65,22.649c-6.758,6.759-17.758,6.759-24.518,0.001
			c-6.759-6.759-6.759-17.759,0-24.518l47.336-47.336l46.999,47.336C275.508,223.033,275.508,234.032,268.75,240.79z"/>
	</g>
</g>
<g>
	<g>
		
			<rect x="126.287" y="62.277" transform="matrix(0.7071 -0.7071 0.7071 0.7071 -13.3617 122.6051)" width="30.058" height="30.309"/>
	</g>
</g>
<g>
	<g>
		<path d="M386.331,60.12V0H65.548v451.879h60.121V512h320.783V60.12H386.331z M95.606,421.82V30.059h260.666V421.82H95.606z
			 M416.394,481.941H155.728v-30.063h230.604v-361.7h30.063V481.941z"/>
	</g>
</g>
<g>
	<g>
		
			<rect x="293.755" y="358.707" transform="matrix(0.7071 -0.7071 0.7071 0.7071 -173.9187 327.8449)" width="30.058" height="30.309"/>
	</g>
</g>
<g>
</g>
<g>
</g>
<g>
</g>
<g>
</g>
<g>
</g>
<g>
</g>
<g>
</g>
<g>
</g>
<g>
</g>
<g>
</g>
<g>
</g>
<g>
</g>
<g>
</g>
<g>
</g>
<g>
</g>
</svg>
