<?xml version="1.0" encoding="iso-8859-1"?>
<!-- Generator: Adobe Illustrator 19.0.0, SVG Export Plug-In . SVG Version: 6.00 Build 0)  -->
<svg version="1.1" id="Capa_1" xmlns="http://www.w3.org/2000/svg" xmlns:xlink="http://www.w3.org/1999/xlink" x="0px" y="0px"
	 viewBox="0 0 512.07 512.07" style="enable-background:new 0 0 512.07 512.07;" xml:space="preserve">
<g>
	<g>
		<g>
			<path d="M129.755,64.991l-17.344-26.88c-9.597,6.19-18.745,13.05-27.376,20.528l20.944,24.192
				C113.48,76.338,121.425,70.377,129.755,64.991z"/>
			<path d="M242.235,31.999c114.82,0.132,207.868,93.18,208,208c0,97.202-78.798,176-176,176s-176-78.798-176-176
				c0-79.529,64.471-144,144-144s144,64.471,144,144c0,61.856-50.144,112-112,112s-112-50.144-112-112c0-44.183,35.817-80,80-80
				s80,35.817,80,80c0,26.51-21.49,48-48,48c-26.51,0-48-21.49-48-48c0-8.837,7.163-16,16-16s16,7.163,16,16v16h32v-16
				c0-26.51-21.49-48-48-48c-26.51,0-48,21.49-48,48c0,44.183,35.817,80,80,80s80-35.817,80-80c0-61.856-50.144-112-112-112
				s-112,50.144-112,112c0,79.529,64.471,144,144,144s144-64.471,144-144c0-97.202-78.798-176-176-176s-176,78.798-176,176
				c0,114.875,93.125,208,208,208s208-93.125,208-208C482.181,107.397,374.643-0.054,242.042,0
				c-34.357,0.014-68.31,7.401-99.567,21.663l13.36,29.088C182.944,38.336,212.419,31.939,242.235,31.999z"/>
			<path d="M85.003,103.807L60.811,82.879c-7.47,8.628-14.324,17.77-20.512,27.36l26.896,17.344
				C72.568,119.251,78.519,111.306,85.003,103.807z"/>
			<path d="M482.139,359.999c-66.219,114.822-212.981,154.223-327.804,88.004C79.992,405.128,34.199,325.82,34.235,239.999
				c-0.071-29.816,6.321-59.292,18.736-86.4l-29.104-13.312C9.531,171.568,2.15,205.588,2.235,239.999
				C2.196,390.22,123.943,512.03,274.164,512.07c97.231,0.025,187.081-51.852,235.671-136.071L482.139,359.999z"/>
		</g>
	</g>
</g>
<g>
</g>
<g>
</g>
<g>
</g>
<g>
</g>
<g>
</g>
<g>
</g>
<g>
</g>
<g>
</g>
<g>
</g>
<g>
</g>
<g>
</g>
<g>
</g>
<g>
</g>
<g>
</g>
<g>
</g>
</svg>
